<svg width="1280" height="420" viewBox="0 0 1280 420" fill="none" xmlns="http://www.w3.org/2000/svg">
<mask id="mask0_3_25" style="mask-type:alpha" maskUnits="userSpaceOnUse" x="0" y="0" width="1280" height="420">
<rect width="1280" height="420" fill="white"/>
</mask>
<g mask="url(#mask0_3_25)">
<rect width="1280" height="420" fill="white"/>
<path d="M-160 27.7287L14.919 -34.7185L272.022 153.538L279.235 150.962L358.987 -157.553L533.906 -220L397.608 249.042L470.398 452.932L315.315 508.298L242.525 304.407L-160 27.7287Z" fill="black"/>
<path d="M764.047 205.523C773.119 185.138 770.142 162.859 755.117 138.686C740.092 114.513 714.041 90.5111 676.965 66.681C651.773 50.4889 629.024 39.1169 608.718 32.5653C588.51 25.8604 571.21 23.5154 556.817 25.5305C542.661 27.6983 532.331 33.8418 525.827 43.9609C519.932 52.0879 517.935 61.204 519.837 71.309C521.976 81.5667 526.914 92.4324 534.653 103.906C542.49 115.226 552.336 127.079 564.191 139.465C576.143 151.697 589.343 164.081 603.788 176.615L662.88 228.895C691.771 253.964 717.062 278.886 738.754 303.66C760.445 328.435 777.438 352.682 789.733 376.4C802.028 400.118 808.645 423.004 809.585 445.057C810.761 467.262 805.162 488.253 792.786 508.031C774.022 536.702 746.552 554.361 710.374 561.007C674.533 567.653 631.716 563.206 581.922 547.668C532.464 532.129 478.027 505.265 418.61 467.076C359.669 429.192 312.078 390.371 275.836 350.611C239.833 311.005 216.933 271.912 207.136 233.334C197.675 194.754 203.24 158.141 223.83 123.494L373.203 219.501C364.717 236.363 363.253 254.054 368.812 272.577C374.708 291.099 386.388 309.764 403.854 328.573C421.656 347.381 443.866 365.339 470.485 382.448C496.628 399.251 520.902 411.386 543.306 418.853C565.948 426.473 585.425 429.351 601.737 427.485C618.049 425.62 629.851 419.015 637.144 407.669C643.943 397.09 644.786 385.066 639.674 371.597C634.799 358.281 624.718 343.135 609.432 326.161C594.384 309.339 574.88 290.304 550.922 269.056L479.701 205.08C424.353 155.857 385.457 109.516 363.012 66.0579C340.567 22.5996 340.648 -16.4549 363.255 -51.1056C381.346 -79.7757 409.124 -97.1286 446.588 -103.164C484.29 -109.047 527.899 -104.526 577.415 -89.5994C626.93 -74.6732 678.307 -50.1013 731.544 -15.8839C785.732 18.9446 829.185 55.3226 861.901 93.2501C894.856 131.33 915.774 168.282 924.654 204.105C933.535 239.929 929.315 272.098 911.995 300.614L764.047 205.523Z" fill="black"/>
<path d="M1402 120.748L1063.54 571.907L947.185 484.617L1096.42 285.693L1089.16 280.25L741.884 330.6L602.419 225.973L958.192 177.176L938.459 -227L1077.66 -122.575L1089.26 176.005L1189.46 161.669L1285.64 33.4584L1402 120.748Z" fill="black"/>
</g>
</svg>
